<svg xmlns="http://www.w3.org/2000/svg" xml:space="preserve" width="1500" height="293" data-id="lg_w4nZBBeJxHaxVFhu50" data-version="1" viewBox="0 0 1500 293"><g data-padding="20"><g transform="translate(10 5.232)scale(.96429)"><rect width="560" height="71.19" x="87.407" y="-289.262" fill="none" rx="0" ry="0" transform="translate(400 476.49)"/><path fill="#8dbdff" d="M493.127 240.393v-14.09q.18.03 1.74.54 1.55.51 3.77 1.14 2.21.63 4.44 1.11 2.23.47 3.8.47 1.35 0 2.21-.4.87-.4.87-1.47 0-1.17-1.24-2.13-1.23-.95-3.15-1.96-1.92-1.02-4.09-2.31t-4.09-3.11q-1.92-1.81-3.15-4.35t-1.23-6.08q0-4.33 1.81-7.33 1.82-3 4.88-4.83t6.89-2.66 7.86-.83q3.41 0 6.46.36 3.04.37 5.15.8t2.66.59v14.12l-1.28-.28q-1.27-.28-3.2-.61-1.92-.34-3.96-.62-2.05-.28-3.59-.28-1.41 0-2.12.5-.71.49-.71 1.17 0 .55.62 1.21.61.66 1.47 1.03 3.23 1.42 6.09 2.89 2.87 1.48 5.05 3.42 2.18 1.93 3.43 4.72 1.25 2.78 1.25 6.81 0 4.8-2.42 8.37-2.41 3.57-6.95 5.54t-10.94 1.97q-5.5 0-9.07-.53-3.57-.52-5.6-1.18t-2.85-1.19Zm43.43-26.26v-9.75h3.51v-10.34l18.4-1.87v12.21h8.7v9.75h-8.7v9.66q0 4.18 1.87 6.21 1.88 2.03 6.83 2.03v7.82q-2.64 1.78-6.03 2.87-3.38 1.1-6.89 1.1-3.87 0-7.09-1.63-3.21-1.64-5.15-4.71-1.94-3.08-1.94-7.35v-16Zm35.13 11.1q0-5.05 1.71-9.14t4.66-7.05q2.95-2.95 6.71-4.53 3.75-1.59 7.84-1.59 3.29 0 6.45 1.62 3.15 1.61 5.03 4.54l4.4-4.71h10.08v38.24h-10.08l-4.4-6.37q-2.37 3.51-6.37 5.5-4 2-8.25 2-4.67 0-8.73-2.01-4.06-2.02-6.55-6.12-2.5-4.11-2.5-10.38m18.34 1.5q0 1.51.71 2.86.7 1.36 2.3 1.36 1.54 0 3.94-.94t5.01-3.15v-10.89q-1.07-.65-2.43-.65-1.75 0-3.44 1.06t-3.06 2.77-2.2 3.71-.83 3.87m63.24-23.74v15.82q-1.9 0-3.96.98-2.07.99-3.46 2.37-1.4 1.38-1.4 2.61v17.85h-18.52v-38.24h18.52v4.09q1.56-2.37 3.89-3.78 2.32-1.42 4.93-1.7m3.73 11.14v-9.75h3.5v-10.34l18.4-1.87v12.21h8.7v9.75h-8.7v9.66q0 4.18 1.88 6.21 1.87 2.03 6.82 2.03v7.82q-2.64 1.78-6.03 2.87-3.38 1.1-6.89 1.1-3.87 0-7.09-1.63-3.21-1.64-5.15-4.71-1.94-3.08-1.94-7.35v-16Zm54.41-9.76v17.81q0 3.94.7 6.14.69 2.2 1.81 3.07 1.12.88 2.38.88 1.85 0 2.42-1.12.57-1.13.57-2.91v-23.87h18.27v38.24h-10.09l-4.4-6q-2.55 3.5-6.9 5.47-4.36 1.97-9 1.97-3.85 0-7.08-1.61-3.23-1.62-5.15-4.66-1.92-3.05-1.92-7.32v-26.09Zm62.49-1.44q5.17 0 8.63 2.1 3.46 2.09 5.2 5.58t1.74 7.77q0 2.95-.87 6.24-.86 3.29-2.75 6.44-1.89 3.16-4.97 5.73-3.07 2.57-7.44 4.13-4.37 1.57-10.24 1.7v9.96h-18.28v-48.2h10.09l4.28 5.91q3.69-3.97 7.55-5.66 3.86-1.7 7.06-1.7m-3.08 12.71q-1.35 0-2.83 1.06-1.47 1.06-2.73 2.74-1.26 1.67-2.06 3.52v8.83q.8-.56 2.58-1.69 1.78-1.14 3.75-2.82t3.36-3.83q1.38-2.15 1.38-4.71 0-1.26-.82-2.18-.81-.92-2.63-.92m45.1 28.1q-4.12 0-8.03-1.43-3.9-1.43-7.03-4.12-3.12-2.69-4.95-6.46t-1.83-8.41q0-4.59 1.72-8.34 1.73-3.75 4.74-6.44 3.02-2.69 6.97-4.16 3.95-1.46 8.41-1.46 6.28 0 11.35 2.48 5.08 2.48 8.05 7.07 2.97 4.6 2.97 10.97 0 4.68-1.82 8.43-1.81 3.75-4.95 6.4-3.14 2.64-7.15 4.06-4.02 1.41-8.45 1.41m-1.94-12.42q1.36 0 3.02-1.28t3.2-3.26q1.54-1.99 2.54-4.17.99-2.18.99-4 0-1.38-.72-2.52t-2.47-1.14q-1.6 0-3.39 1.22-1.78 1.21-3.34 3.16-1.55 1.96-2.52 4.16t-.97 4.2q0 1.35.8 2.49t2.86 1.14m48.5-26.95v17.81q0 3.94.7 6.14.69 2.2 1.81 3.07 1.12.88 2.39.88 1.84 0 2.41-1.12.57-1.13.57-2.91v-23.87h18.27v38.24h-10.09l-4.4-6q-2.55 3.5-6.9 5.47-4.36 1.97-9 1.97-3.85 0-7.08-1.61-3.23-1.62-5.15-4.66-1.92-3.05-1.92-7.32v-26.09Zm31.82 9.76v-9.75h3.51v-10.34l18.39-1.87v12.21h8.71v9.75h-8.71v9.66q0 4.18 1.88 6.21t6.83 2.03v7.82q-2.65 1.78-6.03 2.87-3.38 1.1-6.89 1.1-3.88 0-7.09-1.63-3.21-1.64-5.15-4.71-1.94-3.08-1.94-7.35v-16Zm35.61 26.85v-11.42q.59.03 2.22.62 1.63.58 3.66 1.15t3.78.57q.9 0 1.45-.32.55-.33.55-1.19 0-1.13-1.18-1.9-1.19-.77-2.94-1.62-1.75-.84-3.52-2.17-1.77-1.32-2.95-3.55-1.19-2.23-1.19-5.77 0-3.44 1.46-5.83 1.46-2.38 3.94-3.84t5.57-2.13q3.09-.66 6.35-.66 2.8 0 5.29.28t4.23.6 2.2.45v11.59l-1.09-.24q-1.09-.25-2.72-.56-1.63-.3-3.3-.55-1.66-.25-2.83-.25-.89 0-1.36.4-.48.4-.48.93 0 .49.52.95t2.12 1.11q2.43.98 4.53 1.98 2.09 1 3.67 2.39 1.59 1.38 2.46 3.53.88 2.16.88 5.48 0 6.34-4.49 9.53-4.49 3.2-11.94 3.2-5.9 0-9.13-.69t-4.49-1.38Zm56.07 2.76q-3.72 0-7.26-1.16-3.53-1.17-6.4-3.5-2.86-2.32-4.55-5.73-1.69-3.42-1.69-7.94 0-5.63 2.01-9.86 2.02-4.23 5.47-7.04 3.44-2.82 7.81-4.23 4.37-1.42 9.07-1.42 5.97 0 9.71 1.82 3.74 1.81 5.49 4.67t1.75 6.03q0 3.42-2.18 6.62-2.19 3.19-6.41 5.26-4.23 2.06-10.42 2.06-.58 0-1.55-.02-.97-.01-1.68-.04 0 1.93.93 2.79.92.87 2.32 1.08 1.4.22 2.81.22 1.26 0 3.56-.42 2.29-.41 4.96-1.52 2.68-1.11 5.08-3.17l1.91 9.57q-3.63 3.13-9.19 4.53-5.55 1.4-11.55 1.4m-.83-21.5 6.74-1.51.58-4.7q0-.19.03-.36.04-.17.04-.35 0-2.71-2.53-2.71-2.18.19-3.04 1.5-.86 1.3-1.11 3.41t-.71 4.72m26.99-8.11v-9.75h3.51v-10.34l18.39-1.87v12.21h8.71v9.75h-8.71v9.66q0 4.18 1.88 6.21t6.83 2.03v7.82q-2.65 1.78-6.03 2.87-3.38 1.1-6.89 1.1-3.88 0-7.09-1.63-3.22-1.64-5.15-4.71-1.94-3.08-1.94-7.35v-16Z"/><rect width="482.043" height="15.82" x="126.386" y="-261.578" fill="none" rx="0" ry="0" transform="translate(400.5 538.54)"/><path fill="#77d4fc" d="M533.127 288.153v1.12h4.94v-1.12Zm0-8.68v1.12h4.94v-1.12Zm0 3.92v1.12h4.66v-1.12Zm.53-3.92h-1.19v9.8h1.19Zm14.99 9.79.73-6.62 3.19 5.71 3.2-5.71.72 6.62h1.19l-1.19-10.29-3.92 7.1-3.92-7.1-1.19 10.29Zm19.76-9.79h-1.19v9.8h1.19Zm-.53 0v1.12h2q.95 0 1.55.45.59.46.59 1.37 0 .9-.59 1.36-.6.46-1.55.46h-2v1.12h2q.95 0 1.7-.36.75-.35 1.19-1.02.44-.66.44-1.56 0-.91-.44-1.57t-1.19-1.01q-.75-.36-1.7-.36Zm15.56 4.9q0-1.11.49-1.97.48-.87 1.32-1.38.84-.5 1.9-.5 1.08 0 1.92.5.83.51 1.31 1.38.48.86.48 1.97t-.48 1.97q-.48.87-1.31 1.38-.84.5-1.92.5-1.06 0-1.9-.5-.84-.51-1.32-1.38-.49-.86-.49-1.97m-1.26 0q0 1.06.38 1.99.37.92 1.04 1.6t1.58 1.06q.91.39 1.97.39 1.08 0 1.99-.39.9-.38 1.57-1.06t1.04-1.6q.37-.93.37-1.99 0-1.08-.37-2-.37-.91-1.04-1.59t-1.57-1.07q-.91-.38-1.99-.38-1.06 0-1.97.38-.91.39-1.58 1.07t-1.04 1.59q-.38.92-.38 2m30.75-4.9-2.55 7.21-2.91-7.7-2.86 7.7-2.6-7.21h-1.33l3.85 10.29 2.94-7.62 2.94 7.62 3.85-10.29Zm11.1 8.68v1.12h4.94v-1.12Zm0-8.68v1.12h4.94v-1.12Zm0 3.92v1.12h4.66v-1.12Zm.53-3.92h-1.19v9.8h1.19Zm17.45 4.97h-1.33l3.36 4.83h1.47Zm-1.89-4.97h-1.19v9.8h1.19Zm-.54 0v1.05h2.01q.63 0 1.11.22.48.23.76.65.27.42.27 1.02t-.27 1.02q-.28.42-.76.65-.48.22-1.11.22h-2.01v1.05h2.01q.95 0 1.7-.36.75-.35 1.19-1.02.44-.66.44-1.56 0-.91-.44-1.57t-1.19-1.01q-.75-.36-1.7-.36Zm16.24 0h-1.19v9.8h1.19Zm18.69 0h-1.19v7.29l-7.42-7.78v10.29h1.19v-7.29l7.42 7.78Zm14.65 4.83v1.12h3.26q-.13.57-.4 1.08-.27.5-.69.89-.42.4-1 .61-.58.22-1.31.22-1.04 0-1.88-.49t-1.33-1.36q-.5-.87-.5-2 0-1.15.5-2.01.49-.86 1.33-1.35t1.88-.49q1.12 0 1.94.44.83.44 1.29 1.23l.84-.77q-.42-.69-1.03-1.15t-1.37-.7-1.67-.24q-1.07 0-1.98.37t-1.58 1.05-1.04 1.6q-.37.93-.37 2.02t.37 2.02q.37.92 1.04 1.6t1.58 1.05 1.98.37q1.12 0 1.99-.41.88-.42 1.48-1.13t.91-1.63.31-1.94Zm32.88-4.83h-1.33l-2.53 4.54-2.52-4.54h-1.33l3.26 5.59v4.21h1.19v-4.23Zm9.73 4.9q0-1.11.49-1.97.48-.87 1.32-1.38.84-.5 1.9-.5 1.08 0 1.92.5.83.51 1.31 1.38.48.86.48 1.97t-.48 1.97q-.48.87-1.31 1.38-.84.5-1.92.5-1.06 0-1.9-.5-.84-.51-1.32-1.38-.49-.86-.49-1.97m-1.26 0q0 1.06.38 1.99.37.92 1.04 1.6t1.58 1.06q.91.39 1.97.39 1.08 0 1.99-.39.9-.38 1.57-1.06t1.04-1.6q.37-.93.37-1.99 0-1.08-.37-2-.37-.91-1.04-1.59t-1.57-1.07q-.91-.38-1.99-.38-1.06 0-1.97.38-.91.39-1.58 1.07t-1.04 1.59q-.38.92-.38 2m20.6-4.9h-1.19v6.58q0 .73.23 1.34.23.62.67 1.07t1.06.7q.61.25 1.37.25t1.37-.25q.62-.25 1.06-.7t.67-1.07q.23-.61.23-1.34v-6.58h-1.19v6.58q0 1.01-.54 1.62-.55.62-1.6.62t-1.6-.62q-.54-.61-.54-1.62Zm18.58 4.97h-1.33l3.36 4.83h1.47Zm-1.89-4.97h-1.19v9.8h1.19Zm-.54 0v1.05h2.01q.63 0 1.11.22.48.23.76.65.27.42.27 1.02t-.27 1.02q-.28.42-.76.65-.48.22-1.11.22h-2.01v1.05h2.01q.95 0 1.7-.36.75-.35 1.19-1.02.44-.66.44-1.56 0-.91-.44-1.57t-1.19-1.01q-.75-.36-1.7-.36Zm27.46 6.83-.95.65q.32.64.83 1.21.51.56 1.19.91.68.34 1.48.34.58 0 1.12-.2.54-.19.97-.56.43-.36.67-.88.25-.52.25-1.16 0-.67-.24-1.16-.24-.48-.61-.82t-.81-.57q-.43-.22-.82-.36-.86-.3-1.35-.6-.5-.3-.71-.64t-.21-.75q0-.48.36-.86.37-.39 1.17-.39.57 0 .97.23.4.22.68.57t.46.72l1.02-.59q-.24-.52-.66-.99t-1.01-.77q-.6-.3-1.39-.3-.83 0-1.47.33-.65.33-1.01.9-.37.58-.37 1.3 0 .68.26 1.14t.67.77q.4.32.85.52.45.21.81.33.56.2 1.06.44.5.25.81.64.3.39.3 1.05 0 .67-.47 1.11-.48.43-1.26.43-.59 0-1.05-.25t-.83-.7q-.38-.45-.71-1.04m14.18-6.83v1.12h2.52v8.68h1.19v-8.68h2.52v-1.12Zm16.7 5.73-.42 1.12h5.18l-.42-1.12Zm.49.36 1.65-3.89 1.68 3.95.12.28 1.42 3.36h1.33l-4.55-10.29-4.55 10.29h1.33l1.46-3.44Zm18.33-1.12h-1.33l3.36 4.83h1.47Zm-1.89-4.97h-1.19v9.8h1.19Zm-.53 0v1.05h2q.63 0 1.11.22.48.23.76.65.27.42.27 1.02t-.27 1.02q-.28.42-.76.65-.48.22-1.11.22h-2v1.05h2q.95 0 1.7-.36.75-.35 1.19-1.02.44-.66.44-1.56 0-.91-.44-1.57t-1.19-1.01q-.75-.36-1.7-.36Zm14.06 0v1.12h2.52v8.68h1.19v-8.68h2.52v-1.12Zm16.46 0h-1.19v6.58q0 .73.23 1.34.23.62.67 1.07t1.06.7q.61.25 1.37.25.75 0 1.37-.25t1.06-.7.67-1.07q.23-.61.23-1.34v-6.58h-1.19v6.58q0 1.01-.55 1.62-.54.62-1.59.62t-1.6-.62q-.54-.61-.54-1.62Zm16.68 0h-1.19v9.8h1.19Zm-.53 0v1.12h2q.96 0 1.55.45.6.46.6 1.37 0 .9-.6 1.36-.59.46-1.55.46h-2v1.12h2q.96 0 1.71-.36.74-.35 1.19-1.02.44-.66.44-1.56 0-.91-.44-1.57-.45-.66-1.19-1.01-.75-.36-1.71-.36Zm28.11 0h-1.19v9.8h1.19Zm-.53 9.8h2.28q1.43 0 2.54-.62 1.1-.61 1.73-1.71t.63-2.57-.63-2.57-1.73-1.71q-1.11-.62-2.54-.62h-2.28v1.19h2.28q.83 0 1.52.26.68.26 1.17.74t.76 1.17q.26.69.26 1.54t-.26 1.54q-.27.69-.76 1.17t-1.17.74q-.69.26-1.52.26h-2.28Zm19.8-4.83h-1.33l3.36 4.83h1.47Zm-1.89-4.97h-1.19v9.8h1.19Zm-.53 0v1.05h2q.63 0 1.11.22.48.23.76.65.27.42.27 1.02t-.27 1.02q-.28.42-.76.65-.48.22-1.11.22h-2v1.05h2q.95 0 1.7-.36.75-.35 1.19-1.02.44-.66.44-1.56 0-.91-.44-1.57t-1.19-1.01q-.75-.36-1.7-.36Zm15.69 8.68v1.12h4.94v-1.12Zm0-8.68v1.12h4.94v-1.12Zm0 3.92v1.12h4.66v-1.12Zm.53-3.92h-1.19v9.8h1.19Zm15.72 5.73-.42 1.12h5.18l-.42-1.12Zm.49.36 1.66-3.89 1.68 3.95.11.28 1.43 3.36h1.33l-4.55-10.29-4.55 10.29h1.33l1.45-3.44Zm15.88 3.7.73-6.62 3.19 5.71 3.19-5.71.73 6.62h1.19l-1.19-10.29-3.92 7.1-3.92-7.1-1.19 10.29Zm18.94-2.96-.95.65q.32.64.83 1.21.51.56 1.19.91.68.34 1.48.34.58 0 1.12-.2.54-.19.97-.56.43-.36.67-.88.25-.52.25-1.16 0-.67-.24-1.16-.24-.48-.61-.82t-.81-.57q-.43-.22-.82-.36-.86-.3-1.35-.6-.5-.3-.71-.64t-.21-.75q0-.48.36-.86.37-.39 1.17-.39.57 0 .97.23.4.22.68.57t.46.72l1.02-.59q-.24-.52-.66-.99t-1.01-.77q-.6-.3-1.39-.3-.83 0-1.47.33-.65.33-1.01.9-.37.58-.37 1.3 0 .68.26 1.14t.67.77q.4.32.85.52.45.21.81.33.56.2 1.06.44.5.25.81.64.3.39.3 1.05 0 .67-.47 1.11-.48.43-1.26.43-.59 0-1.05-.25t-.83-.7q-.38-.45-.71-1.04"/><path fill="#333" d="M832.721 124.407c-26.339-14.815-44.325-52.62-46.078-56.382-.316-29.51-3.743-39.538-4.61-41.606-.177-3.35-1.813-26.201-15.13-26.201s-14.952 22.852-15.13 26.2c-.866 2.07-4.294 12.116-4.61 41.686-1.87 4.058-19.817 41.546-46.038 56.303-9.988 5.614-14.893 11.426-14.578 17.257.433 8.077 10.756 12.608 11.21 12.805q.354.138.728.138h14.145v5.24c0 1.043.827 1.89 1.871 1.89h19.878a1.89 1.89 0 0 0 1.871-1.89v-5.24h10.894v5.24c0 1.043.847 1.89 1.891 1.89h35.756a1.89 1.89 0 0 0 1.871-1.89v-5.24h10.934v5.24c0 1.043.827 1.89 1.871 1.89h19.878a1.89 1.89 0 0 0 1.871-1.89v-5.24h14.145q.374 0 .73-.138c.452-.197 10.774-4.728 11.228-12.805q.413-8.767-14.598-17.257M796.04 92.296a146 146 0 0 0 16.41 20.724c-3.644.315-8.864 1.536-13.986 5.416q-7.683 5.832-11.76 16.942l-.04-58.862c2.87 5.413 6 10.685 9.376 15.8M778.172 24.98h-22.498q.138-1.44.453-3.586h21.611q.296 1.97.434 3.586m-23.246 3.782h23.955c1.004 2.994 3.625 13.12 3.98 37.882h-31.915c.374-24.802 2.995-34.908 4-37.882M766.923 3.94c5.634 0 8.668 7.012 10.145 13.652h-20.23c1.38-6.344 4.274-13.652 10.086-13.652m-19.76 72.594v58.923q-4.057-11.19-11.78-17.04a27 27 0 0 0-13.987-5.419 146 146 0 0 0 16.43-20.704 191 191 0 0 0 9.338-15.76m-30.752 81.4v-9.26h16.094v9.28Zm.236-13.042a8.077 8.077 0 0 1 15.642 0Zm19.622 1.892c0-6.528-5.292-11.82-11.82-11.82s-11.82 5.292-11.82 11.82v4.038h-13.694c-1.576-.767-8.353-4.334-8.628-9.377-.217-4.236 4.156-8.983 12.686-13.79a76.8 76.8 0 0 0 14.618-10.934c1.891-.177 8.806-.394 15.484 4.69 7.328 5.535 11.978 15.444 13.83 29.411h-10.639Zm46.65 11.15h-31.974V70.368h31.973Zm34.553 0H801.38v-9.279h16.095Zm-15.858-13.042a8.077 8.077 0 0 1 15.641 0Zm41.96-3.466c-.275 5.122-7.032 8.649-8.608 9.397h-13.73v-4.039c0-6.528-5.293-11.82-11.82-11.82s-11.82 5.292-11.82 11.82v4.038h-10.66c1.831-13.928 6.461-23.797 13.75-29.353 6.698-5.122 13.75-4.904 15.602-4.728a76.8 76.8 0 0 0 14.598 10.914c8.51 4.787 12.903 9.555 12.687 13.79"/><path fill="#333" d="M760.382 39.677h13.042a1.891 1.891 0 1 0 0-3.763h-13.06a1.891 1.891 0 1 0 0 3.743m0 5.674h13.04a1.891 1.891 0 1 0 0-3.784h-13.06a1.891 1.891 0 1 0 0 3.763m.02 5.693h13.04a1.891 1.891 0 1 0 0-3.782h-13.06a1.891 1.891 0 1 0 0 3.763m17.02 23.876c-1.03.01-1.86.842-1.872 1.871v74.723a1.881 1.881 0 0 0 3.763 0V76.731a1.89 1.89 0 0 0-1.89-1.89"/></g><path fill="transparent" stroke="transparent" d="M470 0h560v293H470z"/></g></svg>